PathFileType	4	(X/Y/Z)	36_2_28_p1_0-276.trc
DataRate	CameraRate	NumFrames	NumMarkers	Units	OrigDataRate	OrigDataStartFrame	OrigNumFrames
45.0	45.0	6	27	m	45.0	0	277
Frame#	Time	RHip			RKnee			RAnkle			RBigToe			RSmallToe			RHeel			LHip			LKnee			LAnkle			LBigToe			LSmallToe			LHeel			Neck			Head			Nose			RShoulder			RElbow			RWrist			RThumb			RIndex			RPinky			LShoulder			LElbow			LWrist			LThumb			LIndex			LPinky			
		X1	Y1	Z1	X2	Y2	Z2	X3	Y3	Z3	X4	Y4	Z4	X5	Y5	Z5	X6	Y6	Z6	X7	Y7	Z7	X8	Y8	Z8	X9	Y9	Z9	X10	Y10	Z10	X11	Y11	Z11	X12	Y12	Z12	X13	Y13	Z13	X14	Y14	Z14	X15	Y15	Z15	X16	Y16	Z16	X17	Y17	Z17	X18	Y18	Z18	X19	Y19	Z19	X20	Y20	Z20	X21	Y21	Z21	X22	Y22	Z22	X23	Y23	Z23	X24	Y24	Z24	X25	Y25	Z25	X26	Y26	Z26	X27	Y27	Z27	
0	0.0	0.32893467629077855	0.5293867230228506	-0.16019194371622505	0.35748935134368	0.661094498726	0.2786084131746175	0.3852897025212598	0.7524109831517332	0.7315277580824096	0.3293552735464283	0.5188581467827472	0.7493436567076537	0.3933842909029626	0.5791949237428576	0.7645654913175011	0.3588240261896376	0.8430388398626024	0.8002294498234211	0.10564250272538785	0.5490089951868701	-0.12253100406142756	0.12286240343041016	0.6479141490047513	0.30442519089384895	0.1603873690205264	0.7218073094902918	0.7230290483584857	0.18041534209689025	0.5378132517383025	0.7630311687645475	0.12337907328812689	0.5785603435522788	0.7796050301556678	0.17892500207559026	0.7948996770578786	0.7977963910781859	0.17285802593305108	0.45107552961125263	-0.758066817426027	0.16619412655638566	0.30936541880061996	-1.0211881575129265	0.15315375886917887	0.3092153086256159	-0.847849978142677	0.3421813745886897	0.47858853754685643	-0.6956183371769278	0.41001240316671056	0.481395386807498	-0.41460790173367057	0.27450912646511344	0.39209349086272705	-0.17795010172923492	0.17716013214630244	0.37082103769108565	-0.10842445745948873	0.17602045157842688	0.38206735673464826	-0.07122992007843922	0.19305069670200284	0.4104890179587458	-0.0625253541762249	-0.005999081005243347	0.45271604434107565	-0.6730514766405931	0.004334382200961232	0.47343752651451665	-0.3855545188937544	0.14516213396771102	0.3731883072234189	-0.16607344354109752	0.22623057788665388	0.3898978337198393	-0.10216063370122691	0.2245059648309637	0.3869717451193395	-0.0716844785467938	0.20049725262197807	0.3971385040627509	-0.07023210438517868
1	0.022222222222222223	0.3287908908356496	0.5300988828323596	-0.15305928028456994	0.3570552885065385	0.6618453927453668	0.2830713454041914	0.3853501195180463	0.7525216777241551	0.7313424087950681	0.32548985178566087	0.5051588117251871	0.7432271978635188	0.39806127838977345	0.5505162955983748	0.7499801569596143	0.3630664261686097	0.8435062125022917	0.7996728047148131	0.10837540560360973	0.5623620492649514	-0.12040675157860584	0.1269759425235237	0.6498737132551555	0.3044992598716112	0.15890309878208245	0.7193687360307919	0.7171982874578381	0.1764135509945625	0.5217740085257996	0.7516389069519519	0.12398573111222867	0.5776369119564586	0.7754258301955819	0.17767941320827296	0.7926096432319826	0.7924654549202923	0.1728608088447353	0.45105284367753656	-0.7581214643828823	0.16284614818906004	0.2984079032071342	-1.0229077047608934	0.15301826128637616	0.3091374109443715	-0.8478269052416741	0.3380201067192005	0.4771164734318504	-0.6951386850483929	0.40992179703855086	0.4815663079004385	-0.41091717755885515	0.2749512634924715	0.3921741142285657	-0.1743068952982605	0.18060608421185528	0.3831673689934961	-0.10243611646537233	0.17928248552513218	0.3934412969225813	-0.06918886292125544	0.20027239016414605	0.409032823583202	-0.06340350540468759	-0.0034160166503005873	0.46393960087858005	-0.6733774596836629	0.004381417493523287	0.4729952489037224	-0.3856233119784899	0.1522589852963469	0.3739153418888809	-0.16681045149916252	0.23082765921208342	0.37675665745493286	-0.10179709652645269	0.22836146316366235	0.3742955987466298	-0.07460185583930078	0.2042185248027023	0.39904932386060527	-0.0663395865107431
2	0.044444444444444446	0.32886896456594755	0.530154190157256	-0.1529486655572013	0.3570709127697593	0.6619331735642738	0.2832664498787892	0.38535531344172286	0.7524054328883745	0.7312648230692387	0.3252318805231159	0.504449927681224	0.7430604843941094	0.3979397032141531	0.5498077042340779	0.7497543730325481	0.3630718452134807	0.8435033363259841	0.7997179740807363	0.10829741366429836	0.5622648712077774	-0.1204738160445238	0.12704614652342322	0.6499603582723399	0.30451896551491264	0.15888137194200908	0.7191912927628143	0.7170653674689486	0.18067002937014184	0.5074901792310619	0.7442621667009387	0.12406271916575866	0.5775838635402971	0.7753424367436995	0.17764427789250598	0.7926000598058388	0.7926647177434717	0.1684154696580704	0.4623822968236398	-0.7611846528053163	0.1595593052904797	0.2976692518896765	-1.0192256544871656	0.15285992405620885	0.3090733849263289	-0.847845917634657	0.3385424208192465	0.4771444460804595	-0.6915587238444725	0.40603274034841175	0.4804888339208995	-0.41048353010783656	0.2749387691018902	0.3921594801962611	-0.17418836033538282	0.17767821669440798	0.37060195636462334	-0.10488448240109556	0.17631832216437698	0.38156087945809625	-0.07465246314813426	0.2011184761183775	0.4087408354484013	-0.05978245357321335	-0.0034548043492662384	0.46405068914809056	-0.673363867369391	0.004555616220581394	0.47311754501656084	-0.3856665357058255	0.1523438459251531	0.3738168309937456	-0.1668463596443294	0.23002645944474837	0.3764570169711866	-0.10220756273886263	0.22783398651405248	0.3740784617247285	-0.07458448918803691	0.2043698400876839	0.39882439719936985	-0.06994369718437984
3	0.06666666666666667	0.3288829562810931	0.530247744740651	-0.15294881142485767	0.3570261073251304	0.6617061907451884	0.28315693999625857	0.385314228528622	0.7523003387096644	0.7313318787609425	0.32465471805015583	0.50391332578777	0.7433139145600957	0.3972393996950406	0.5494450986088663	0.750268268229589	0.36254807554014745	0.843169971297622	0.7998121987960103	0.10396753918412117	0.5758255445463661	-0.11372480982460968	0.12704352928957147	0.6499519889257177	0.30450035781760415	0.15963752606961565	0.7184152741501434	0.7209512296224666	0.17935335128226226	0.5355766996785937	0.7578590173653001	0.12397676544548479	0.5778723991337512	0.7755583172088041	0.1777984791371345	0.7928967849518077	0.7928000600421136	0.16839738136929921	0.46239901851837806	-0.761252869192476	0.16284253894580478	0.2985727462644844	-1.022788832440813	0.15254006717050753	0.30898035048386946	-0.8509474298827655	0.3385377445994364	0.4770345605257486	-0.6915617015215323	0.4099600183354	0.4814909071971789	-0.4107897239050761	0.27497895634361075	0.3919883348420483	-0.17419017266364734	0.17772595297771382	0.37051941963665963	-0.1045163637769276	0.17624837551324418	0.3817142230486189	-0.07462791025609657	0.2010723642826592	0.4088261292211857	-0.05611581326752336	-0.003461667434098848	0.46410689405119376	-0.673367494204609	0.004549933138046928	0.47306971665648323	-0.38565476008220906	0.15234056480292701	0.37379443093530573	-0.16687040332325317	0.2301600240986367	0.3762572197385472	-0.10220155990215785	0.22772970569137424	0.37341553151480017	-0.07483901556347397	0.20819120025471746	0.4000380482057159	-0.07018957685234403
4	0.08888888888888889	0.32509373058208896	0.5442747817250576	-0.15006675781659748	0.3582053269315727	0.6635681666727273	0.2877517620360619	0.385297823004036	0.7523056422911955	0.7313195679769786	0.3246339830771487	0.5036723219724754	0.7432533164238767	0.3926313177932892	0.5471364134052115	0.7497831449334766	0.35879815439112867	0.8423248521659036	0.7999181500225472	0.1033709921553115	0.5765402671401684	-0.11737518285715196	0.12718124772073194	0.6498335503031345	0.3044232197587071	0.16398922753240436	0.7208700858601597	0.7215338331012713	0.18072523081092948	0.507440055237079	0.7443139199763024	0.12409769844248482	0.5776236268339653	0.7753972377221326	0.17781651263330256	0.7927790647698765	0.792789219214365	0.16836546651322468	0.4624680683596975	-0.7612717466490104	0.15897693392554874	0.30944982459716186	-1.0238382157952448	0.15245979415307256	0.30905052951524703	-0.8509249586108719	0.33849735667829967	0.47709724276714593	-0.6915687699390116	0.4099020194583018	0.4815153590424452	-0.4107843964192851	0.27500838938179906	0.39203665568238527	-0.1741422424008811	0.17755252427206922	0.37036598061907394	-0.10503002861624913	0.176285951189152	0.3816343830454896	-0.07477841246353784	0.20497631973476932	0.4101146775707066	-0.05625474851885656	-0.003442589471536733	0.4643014658975988	-0.6733920441837463	0.004625536706625223	0.4730996285097695	-0.3855989326453699	0.15662882023398056	0.3746096528009554	-0.16720975944970512	0.23054232398037217	0.37610978154042707	-0.10195509473522874	0.22801970688356163	0.3733434470317769	-0.07488821489314516	0.20818447240651128	0.3997934935448132	-0.0703047502767029
5	0.1111111111111111	0.32509487553520894	0.5441521478549545	-0.15020347790851318	0.356964587771541	0.6616985923449334	0.2831321998601724	0.3852881058676153	0.7523314853068798	0.7313051036309626	0.32493003824677896	0.5043490649842733	0.7432708893093207	0.39751620787238384	0.5497205080719308	0.7501309970989047	0.3587783538975394	0.842536948894385	0.8000121897199053	0.10388614533542367	0.576139480569273	-0.11366659003818196	0.12711350615085637	0.6499077673836829	0.3043859804159623	0.16405747361492753	0.7209314024201116	0.7215368622450261	0.18073607857826932	0.5075218455117788	0.7443692083455918	0.12402245993440122	0.5777707152854253	0.7754927336974208	0.17806457071258672	0.7930293685828245	0.7926170639359902	0.16835485619998644	0.4624328057986573	-0.7613809032577735	0.15539897049859483	0.3081870318344662	-1.023176703431254	0.14885234844243353	0.30834329042059694	-0.8505607492741667	0.3384953597838508	0.47702637760436434	-0.6915648071999608	0.40991497057699283	0.4815202696839054	-0.41078214323289947	0.2750968736512347	0.391862250141012	-0.17413115595803835	0.17671347546780508	0.37059291578494047	-0.10933512409999649	0.1761676317418903	0.38165395819266995	-0.07496000432819268	0.20509322813719785	0.4101416684960305	-0.05612082467043333	-0.0034227196453992925	0.4641405573463864	-0.673442117659494	0.0045733066005489865	0.4732837030559495	-0.38565205696345445	0.1525748138362297	0.3736707578538504	-0.16684995785344175	0.23422695491238765	0.3627912231247196	-0.10528036889751799	0.2319956964164118	0.36050501959537334	-0.07808379571625881	0.20837573989694902	0.39974379202390936	-0.07031051744233134
